<svg id="Layer_1" data-name="Layer 1" xmlns="http://www.w3.org/2000/svg" viewBox="0 0 400 400"><path d="M98.16,292.62l57.7-4.4L172.28,287l-2.75-2.75a9.58,9.58,0,0,1-2.12,5.53A20.9,20.9,0,0,1,162.6,294c-4.8,3.21-10.29,5.38-15.51,7.79-6.16,2.86-12.28,5.9-18.54,8.54-5.24,2.21-11.09,4-16.78,2.55a13.78,13.78,0,0,1-3.76-1.51c-1.55-.91-2.75-2.63-4.75-2.14a3.46,3.46,0,0,0-2.37,4.16,3.26,3.26,0,0,0,4,2.5,2.78,2.78,0,0,0,1.92-3.39,2.81,2.81,0,0,0-3.38-1.92l-.18,0h1.46l.39.15,1,1a2,2,0,0,1,0,1.65l-1,1-.38.15h-1.47l.18,0-1.21-.71a20.64,20.64,0,0,0,15.18,5c6.29-.34,12.1-2.88,17.74-5.48L153,305.11c4.73-2.19,9.62-4.22,13.82-7.36,4.47-3.34,8-7.74,8.21-13.53a2.77,2.77,0,0,0-2.75-2.75l-57.7,4.4-16.42,1.25a2.83,2.83,0,0,0-2.75,2.75,2.77,2.77,0,0,0,2.75,2.75Z"/><path d="M102.58,191.78l-9.09,17.53c-3,5.75-6.09,11.46-8.93,17.29-2.69,5.55-4.84,11.5-3.85,17.75.84,5.32,4.13,10.09,8.17,13.53,5.13,4.37,11.41,6.86,17.61,9.29a2.76,2.76,0,0,0,3.38-1.92,2.81,2.81,0,0,0-1.92-3.38C99.36,258.5,88.5,254.1,86.23,244c-1.17-5.18,1-10.51,3.29-15.07,2.65-5.38,5.5-10.68,8.27-16l9.54-18.4a2.82,2.82,0,0,0-1-3.77,2.78,2.78,0,0,0-3.76,1Z"/><path d="M106.08,257.85a8.55,8.55,0,0,1,3.36-4,7.9,7.9,0,0,1,5.32-1.26c.19,0,.19,0,0,0l.29.05c.28.07.57.13.85.22a4.85,4.85,0,0,1,1,.35,8.94,8.94,0,0,1,2.33,1.57,8.16,8.16,0,0,1,2.59,4.85,2.77,2.77,0,0,0,3.38,1.92,2.8,2.8,0,0,0,1.92-3.38,14,14,0,0,0-12.32-11.08c-6.16-.6-12,3.68-14,9.33a2.79,2.79,0,0,0,1.92,3.39,2.82,2.82,0,0,0,3.39-1.93Z"/><path d="M123.64,235.14c4.07,2.42,8.63,5,11,9.26,1.83,3.27,2,7.62-.79,10.14a2.75,2.75,0,1,0,3.88,3.89c4.46-4.06,4.5-10.78,2.11-15.93-2.61-5.6-8.34-9.08-13.45-12.11-3-1.81-5.82,2.94-2.77,4.75Z"/><path d="M148,200.76a31.45,31.45,0,0,0,36.59-5.15,2.73,2.73,0,0,0,.71-2.67,25.77,25.77,0,0,0-14.54-15.25,25.42,25.42,0,0,0-22.41,1.94c-3,1.84-.26,6.59,2.78,4.75a19.6,19.6,0,0,1,28.86,10l.71-2.67A25.82,25.82,0,0,1,150.81,196c-3.1-1.7-5.88,3-2.77,4.75Z"/><path d="M152,178.77c-3.13,4.87-1.74,11.78,2.4,15.64a10.93,10.93,0,0,0,8.2,3.06,12.72,12.72,0,0,0,8.49-4.29,12.23,12.23,0,0,0,3-10.57,2.76,2.76,0,0,0-3.38-1.92,2.81,2.81,0,0,0-1.92,3.38l.09.47s0-.46,0-.15,0,.54,0,.81-.14,1.06,0,.42c-.06.31-.11.61-.19.91s-.18.51-.25.77.19-.38,0,0l-.15.32a10.78,10.78,0,0,1-1,1.59c.3-.41-.13.14-.25.27s-.38.4-.58.59-.41.36-.62.54.35-.21,0,0c-.17.1-.33.22-.49.33s-.47.28-.71.4-.85.35-.3.16c-.56.19-1.1.32-1.67.47-.4.11.46,0,0,0l-.34,0c-.31,0-.62,0-.93,0,0,0-.45,0-.11,0s-.1,0-.2,0c-.27-.06-.53-.12-.79-.2s-.68-.28-.19,0c-.21-.1-.43-.2-.63-.31s-.41-.24-.6-.37l-.33-.23c.27.19.26.22,0,0s-.68-.65-1-1,.14.24-.14-.15c-.15-.23-.31-.45-.45-.68s-.28-.47-.4-.71-.36-.77-.21-.42-.11-.31-.15-.43a7.15,7.15,0,0,1-.23-.79c-.08-.29-.12-.6-.19-.89s0,.21,0,.22c0-.17,0-.33,0-.5a12.17,12.17,0,0,1,0-1.71c-.05.62,0,0,.08-.26a7.42,7.42,0,0,1,.22-.77c0-.13.09-.25.14-.38-.12.32-.15.32,0,0s.3-.54.46-.8a2.77,2.77,0,0,0-1-3.76,2.82,2.82,0,0,0-3.77,1Z"/><path d="M94.22,204.62c-3.78,1.13-7.77,2.41-11.77,1.93-2.42-.28-5.3-1.58-6.63-3.74s-.93-4.72.55-7a10.87,10.87,0,0,1,7.22-4.55c4-.83,8.31,0,12.27.9a2.82,2.82,0,0,0,3.38-1.92,2.78,2.78,0,0,0-1.92-3.39c-4.72-1.07-9.55-1.83-14.38-1a16.57,16.57,0,0,0-10.84,6.53c-2.37,3.2-3.4,7.6-1.91,11.39a13.55,13.55,0,0,0,9.33,7.83c5.4,1.44,11-.08,16.17-1.63,3.38-1,1.94-6.32-1.47-5.31Z"/><path d="M77.67,188.61c-3.45,4.92-.76,11.8,3.88,14.84a9.13,9.13,0,0,0,7.75,1.12,12.16,12.16,0,0,0,7.85-14.8,2.75,2.75,0,0,0-5.3,1.46c.07.28.14.55.2.84a2.7,2.7,0,0,1,.07.41c0-.65,0-.27,0-.12,0,.57-.11,1.23,0,1.78,0-.08.12-.64,0-.16l-.06.28c-.05.25-.11.49-.18.73s-.17.47-.25.71.24-.47.06-.15c-.08.13-.13.28-.2.41s-.6,1.25-.77,1.24c0,0,.37-.44.1-.13l-.24.27c-.19.22-.4.43-.61.64,0,0-.53.44-.53.46s.57-.4.15-.12l-.28.2a11.28,11.28,0,0,1-1.17.66c-.41.21.15-.08.2-.08a2.22,2.22,0,0,0-.3.11,6.36,6.36,0,0,1-.62.19c-.2,0-.43.06-.62.12.57-.19.51-.05.27,0l-.46,0a4.29,4.29,0,0,0-.62,0s.71.14.28,0l-.29-.07c-.23-.05-.44-.13-.66-.2-.41-.13.19,0,.16.07s-.38-.18-.41-.19c-.19-.1-1.09-.5-1.13-.72,0,.06.43.37.14.1l-.27-.24c-.22-.21-.43-.42-.63-.65l-.24-.27s.4.56.1.12c-.14-.19-.27-.39-.4-.59s-.25-.42-.36-.63l-.15-.32c-.23-.45.13.4,0,.08-.17-.54-.34-1.06-.46-1.61-.08-.34.13-.07,0,.21,0-.1,0-.32,0-.43s0-.52,0-.78a2.24,2.24,0,0,0,0-.34c.07.12-.13.67,0,.14.06-.25.11-.5.19-.74a2.09,2.09,0,0,0,.12-.33c-.16.37-.2.45-.11.26l.11-.23a7.25,7.25,0,0,1,.47-.75,2.76,2.76,0,0,0-1-3.76,2.81,2.81,0,0,0-3.76,1Z"/><path d="M275.25,225.44a1.76,1.76,0,0,1,1.46.84,5.1,5.1,0,0,1,.71,1.92,5.25,5.25,0,0,1-.36,2.83,19.14,19.14,0,0,1-1.61,3.39c-2.39,4.36-5.05,10.08-1.85,14.79s9.67,4.3,14.57,3.16A30.52,30.52,0,0,0,301,245.72a29.51,29.51,0,0,0,8.88-13.5c1.07-3.39-4.24-4.84-5.3-1.47a24.76,24.76,0,0,1-17.16,16.14c-2.86.75-9,2-9.68-2a9,9,0,0,1,1.16-5.27,51.39,51.39,0,0,0,3.48-7.16c1.51-4.64-.16-11.35-5.65-12.36a2.83,2.83,0,0,0-3.38,1.92,2.77,2.77,0,0,0,1.92,3.38Z"/><path d="M267.36,265.64c.78,6.45,6,11.37,12.3,12.58,7.07,1.36,13.86-1.9,19.09-6.44,10.49-9.09,15.57-22.89,19.15-35.9,2.29-8.34,4.26-16.76,6.35-25.15.86-3.44-4.44-4.9-5.3-1.47-1.75,7-3.45,14-5.26,21a141.91,141.91,0,0,1-5.68,18,55.9,55.9,0,0,1-8.93,15.28c-3.72,4.37-8.64,8.66-14.57,9.38a11.39,11.39,0,0,1-7.64-1.72,8.44,8.44,0,0,1-4-5.62,2.84,2.84,0,0,0-2.75-2.75c-1.35,0-2.93,1.26-2.75,2.75Z"/><path d="M267.67,279.89c-1.93,15.71-10.18,30.05-20.89,41.44-11.95,12.7-27,21.74-42.79,28.88-8.39,3.79-17,7.05-25.67,10.15-8.37,3-16.77,6.18-25.41,8.32-7.95,1.95-16.51,3-24.45.44-7.5-2.45-12.83-8.27-16.71-14.92-4.37-7.5-7.41-15.77-10.77-23.75q-6-14.28-12-28.56l-3-7.08a2.85,2.85,0,0,0-3.39-1.93c-1.29.36-2.5,2-1.92,3.39l12.42,29.47c3.77,9,7.24,18.13,11.57,26.83,3.7,7.43,8.61,14.59,15.87,18.93,7.87,4.7,17.16,5.26,26,4,9.06-1.27,17.7-4.38,26.29-7.39,9.06-3.17,18.09-6.42,26.94-10.13,17.05-7.15,33.59-16,47-28.89,12.07-11.55,21.79-26.27,25.31-42.78.45-2.12.78-4.27,1-6.43.19-1.47-1.39-2.75-2.75-2.75a2.83,2.83,0,0,0-2.75,2.75Z"/><path d="M74.32,163c-9.08-11.36-12.71-26.32-11.67-40.66s7.2-28,16.5-39a90.48,90.48,0,0,1,35.94-25.36c16-6.28,33.29-8.57,50.42-8.17a175.11,175.11,0,0,1,46.67,7.61,181.19,181.19,0,0,1,42.59,19.27c12.93,8,25.26,17.63,35.35,29.06C299.61,116.45,307,129,313,142A225.34,225.34,0,0,1,327,184.08q2.52,10.71,4.18,21.62.78,5.1,1.36,10.23a35.92,35.92,0,0,1,.05,5.29l-.16,4.78c-.1,3.14,4.56,3.68,5.4.73,3.13-11-2.65-22.09-10.63-29.42a94.64,94.64,0,0,0-13.86-10.07q-8.11-5.1-16.25-10.18-32.83-20.56-65.66-41.14c-20.1-12.57-40.8-25.18-63.87-31.45-21.68-5.88-46.2-6.14-66.41,4.75C84,118.48,70.66,136,68.92,155.72a46.13,46.13,0,0,0-.06,7.15,2.81,2.81,0,0,0,2.75,2.75,2.77,2.77,0,0,0,2.75-2.75c-1.24-18.39,9.48-35.7,24.43-45.77,17.78-12,40.63-13.23,61.09-8.84,22.3,4.78,42.43,16.11,61.66,28,21.08,13,42,26.27,63,39.42,10.2,6.39,20.57,12.57,30.59,19.25,8.24,5.49,16.82,12.92,18,23.41a17.82,17.82,0,0,1-.56,7l5.4.73a74.24,74.24,0,0,0,0-11.06q-1.29-11.1-3.41-22.08a247.5,247.5,0,0,0-12.75-44.08c-5.59-14-12.6-27.56-21.77-39.59-9.48-12.44-21.29-22.84-34.09-31.77A186.11,186.11,0,0,0,222.55,55,183.37,183.37,0,0,0,175,44.76c-17.6-1.4-35.65-.21-52.63,4.85a100.71,100.71,0,0,0-41.32,23.6c-10.91,10.53-19.27,24.05-22.48,39-3.26,15.13-1.61,31.41,5.59,45.2a58.44,58.44,0,0,0,6.25,9.46,2.76,2.76,0,0,0,3.89,0,2.81,2.81,0,0,0,0-3.88Z"/><path d="M102.89,63.87A272.54,272.54,0,0,1,155.1,43.32c18.8-5.29,38.38-8.84,58-8.35a98.7,98.7,0,0,1,25.84,3.79,83.42,83.42,0,0,1,22.78,11c15,10.13,27.28,24.28,36.47,39.82,9.07,15.33,15.59,32.85,17.22,50.51.19,2.13.32,4.26.37,6.4.09,3.53,5.59,3.55,5.5,0-.48-18.65-6.21-37-14.84-53.4-8.8-16.78-21-32.12-36-43.75a97.45,97.45,0,0,0-23.64-13.66,92.15,92.15,0,0,0-26.13-5.8c-19.87-1.72-40.1,1.28-59.36,6.09a282.75,282.75,0,0,0-55.51,20.27c-1.9.93-3.8,1.89-5.68,2.88-3.14,1.64-.36,6.38,2.78,4.74Z"/><path d="M136,170.19a52.63,52.63,0,0,1,41.12,2.67,49.39,49.39,0,0,1,9.94,6.61,2.83,2.83,0,0,0,3.89,0,2.78,2.78,0,0,0,0-3.89A58.06,58.06,0,0,0,147.63,162a55.59,55.59,0,0,0-13.06,2.9,2.83,2.83,0,0,0-1.92,3.38,2.77,2.77,0,0,0,3.39,1.92Z"/><path d="M96.58,179.83a21.46,21.46,0,0,0-17.07-5.91,21.84,21.84,0,0,0-15.19,9,2.75,2.75,0,1,0,4.75,2.78c5.54-7.66,16.86-8.44,23.62-2,2.56,2.44,6.46-1.44,3.89-3.89Z"/></svg>